[x11grab @ 0x56255c47c000] Stream #0: not enough frames to estimate rate; consider increasing probesize
Input #0, x11grab, from ':99.0+0,0':
  Duration: N/A, start: 1783690349.248425, bitrate: 983520 kb/s
  Stream #0:0: Video: rawvideo (BGR[0] / 0x524742), bgr0, 1366x900, 983520 kb/s, 25 fps, 1000k tbr, 1000k tbn
Stream mapping:
  Stream #0:0 -> #0:0 (rawvideo (native) -> h264 (libx264))
Press [q] to stop, [?] for help
[libx264 @ 0x56255c484d40] using cpu capabilities: MMX2 SSE2Fast SSSE3 SSE4.2 AVX FMA3 BMI2 AVX2
[libx264 @ 0x56255c484d40] profile High, level 3.2, 4:2:0, 8-bit
[libx264 @ 0x56255c484d40] 264 - core 164 r3108 31e19f9 - H.264/MPEG-4 AVC codec - Copyleft 2003-2023 - http://www.videolan.org/x264.html - options: cabac=1 ref=1 deblock=1:0:0 analyse=0x3:0x113 me=hex subme=2 psy=1 psy_rd=1.00:0.00 mixed_ref=0 me_range=16 chroma_me=1 trellis=0 8x8dct=1 cqm=0 deadzone=21,11 fast_pskip=1 chroma_qp_offset=0 threads=3 lookahead_threads=1 sliced_threads=0 nr=0 decimate=1 interlaced=0 bluray_compat=0 constrained_intra=0 bframes=3 b_pyramid=2 b_adapt=1 b_bias=0 direct=1 weightb=1 open_gop=0 weightp=1 keyint=250 keyint_min=25 scenecut=40 intra_refresh=0 rc_lookahead=10 rc=crf mbtree=1 crf=23.0 qcomp=0.60 qpmin=0 qpmax=69 qpstep=4 ip_ratio=1.40 aq=1:1.00
Output #0, mp4, to '/home/runner/work/Auto_Browser/Auto_Browser/recordings/oncc/latest.mp4':
  Metadata:
    encoder         : Lavf60.16.100
  Stream #0:0: Video: h264 (avc1 / 0x31637661), yuv420p(tv, progressive), 1366x900, q=2-31, 25 fps, 12800 tbn
    Metadata:
      encoder         : Lavc60.31.102 libx264
    Side data:
      cpb: bitrate max/min/avg: 0/0/0 buffer size: 0 vbv_delay: N/A
frame=    0 fps=0.0 q=0.0 size=       0kB time=N/A bitrate=N/A speed=N/A    frame=    0 fps=0.0 q=0.0 size=       0kB time=N/A bitrate=N/A speed=N/A    frame=   11 fps= 11 q=28.0 size=       0kB time=00:00:00.36 bitrate=   1.1kbits/s speed=0.346x    frame=   24 fps= 15 q=28.0 size=       0kB time=00:00:00.88 bitrate=   0.4kbits/s speed=0.564x    frame=   37 fps= 18 q=28.0 size=       0kB time=00:00:01.40 bitrate=   0.3kbits/s speed=0.673x    frame=   50 fps= 19 q=28.0 size=       0kB time=00:00:01.92 bitrate=   0.2kbits/s speed=0.738x    frame=   63 fps= 20 q=28.0 size=       0kB time=00:00:02.44 bitrate=   0.2kbits/s speed=0.782x    frame=   77 fps= 21 q=28.0 size=     256kB time=00:00:02.96 bitrate= 708.6kbits/s speed=0.813x    frame=   89 fps= 21 q=28.0 size=     256kB time=00:00:03.48 bitrate= 602.7kbits/s speed=0.837x    frame=  102 fps= 22 q=28.0 size=     256kB time=00:00:04.00 bitrate= 524.4kbits/s speed=0.855x    frame=  116 fps= 22 q=28.0 size=     256kB time=00:00:04.52 bitrate= 464.1kbits/s speed=0.869x    frame=  129 fps= 23 q=28.0 size=     256kB time=00:00:05.04 bitrate= 416.2kbits/s speed=0.881x    frame=  141 fps= 23 q=28.0 size=     256kB time=00:00:05.56 bitrate= 377.3kbits/s speed=0.891x    frame=  154 fps= 23 q=28.0 size=     256kB time=00:00:06.08 bitrate= 345.0kbits/s speed=0.899x    frame=  167 fps= 23 q=28.0 size=     256kB time=00:00:06.60 bitrate= 317.8kbits/s speed=0.907x    frame=  180 fps= 23 q=28.0 size=     256kB time=00:00:07.12 bitrate= 294.6kbits/s speed=0.913x    frame=  194 fps= 23 q=28.0 size=     256kB time=00:00:07.64 bitrate= 274.5kbits/s speed=0.918x    frame=  207 fps= 23 q=28.0 size=     256kB time=00:00:08.16 bitrate= 257.1kbits/s speed=0.923x    frame=  219 fps= 23 q=28.0 size=     256kB time=00:00:08.68 bitrate= 241.7kbits/s speed=0.927x    frame=  232 fps= 23 q=28.0 size=     256kB time=00:00:09.20 bitrate= 228.0kbits/s speed=0.931x    frame=  246 fps= 24 q=28.0 size=     512kB time=00:00:09.72 bitrate= 431.6kbits/s speed=0.935x    frame=  258 fps= 24 q=28.0 size=     512kB time=00:00:10.24 bitrate= 409.6kbits/s speed=0.938x    frame=  272 fps= 24 q=28.0 size=     512kB time=00:00:10.76 bitrate= 389.8kbits/s speed=0.941x    frame=  284 fps= 24 q=28.0 size=     512kB time=00:00:11.28 bitrate= 371.9kbits/s speed=0.943x    frame=  298 fps= 24 q=28.0 size=     512kB time=00:00:11.80 bitrate= 355.5kbits/s speed=0.946x    frame=  311 fps= 24 q=28.0 size=     512kB time=00:00:12.32 bitrate= 340.5kbits/s speed=0.948x    frame=  323 fps= 24 q=28.0 size=     512kB time=00:00:12.84 bitrate= 326.7kbits/s speed=0.95x    frame=  336 fps= 24 q=28.0 size=     512kB time=00:00:13.36 bitrate= 314.0kbits/s speed=0.951x    frame=  349 fps= 24 q=28.0 size=     512kB time=00:00:13.88 bitrate= 302.2kbits/s speed=0.953x    frame=  363 fps= 24 q=28.0 size=     512kB time=00:00:14.40 bitrate= 291.3kbits/s speed=0.955x    frame=  376 fps= 24 q=28.0 size=     512kB time=00:00:14.92 bitrate= 281.1kbits/s speed=0.956x    frame=  388 fps= 24 q=28.0 size=     512kB time=00:00:15.44 bitrate= 271.7kbits/s speed=0.958x    frame=  401 fps= 24 q=28.0 size=     512kB time=00:00:15.96 bitrate= 262.8kbits/s speed=0.959x    frame=  415 fps= 24 q=28.0 size=     512kB time=00:00:16.48 bitrate= 254.5kbits/s speed=0.96x    frame=  427 fps= 24 q=28.0 size=     512kB time=00:00:17.00 bitrate= 246.7kbits/s speed=0.962x    frame=  440 fps= 24 q=28.0 size=     512kB time=00:00:17.52 bitrate= 239.4kbits/s speed=0.963x    frame=  453 fps= 24 q=28.0 size=     512kB time=00:00:18.04 bitrate= 232.5kbits/s speed=0.964x    frame=  466 fps= 24 q=28.0 size=     512kB time=00:00:18.56 bitrate= 226.0kbits/s speed=0.965x    frame=  479 fps= 24 q=28.0 size=     768kB time=00:00:19.08 bitrate= 329.8kbits/s speed=0.966x    frame=  493 fps= 24 q=28.0 size=     768kB time=00:00:19.60 bitrate= 321.0kbits/s speed=0.966x    frame=  506 fps= 24 q=28.0 size=     768kB time=00:00:20.12 bitrate= 312.7kbits/s speed=0.967x    frame=  518 fps= 24 q=28.0 size=     768kB time=00:00:20.64 bitrate= 304.8kbits/s speed=0.968x    frame=  532 fps= 24 q=28.0 size=     768kB time=00:00:21.16 bitrate= 297.3kbits/s speed=0.969x    frame=  544 fps= 24 q=28.0 size=     768kB time=00:00:21.68 bitrate= 290.2kbits/s speed=0.97x    frame=  558 fps= 24 q=28.0 size=     768kB time=00:00:22.20 bitrate= 283.4kbits/s speed=0.97x    frame=  570 fps= 24 q=28.0 size=     768kB time=00:00:22.72 bitrate= 276.9kbits/s speed=0.971x    frame=  583 fps= 24 q=28.0 size=     768kB time=00:00:23.24 bitrate= 270.7kbits/s speed=0.972x    frame=  596 fps= 24 q=28.0 size=     768kB time=00:00:23.76 bitrate= 264.8kbits/s speed=0.972x    frame=  609 fps= 24 q=28.0 size=    1024kB time=00:00:24.28 bitrate= 345.5kbits/s speed=0.973x    frame=  622 fps= 24 q=28.0 size=    1024kB time=00:00:24.80 bitrate= 338.3kbits/s speed=0.973x    frame=  636 fps= 24 q=28.0 size=    1024kB time=00:00:25.32 bitrate= 331.3kbits/s speed=0.974x    frame=  649 fps= 24 q=28.0 size=    1024kB time=00:00:25.84 bitrate= 324.7kbits/s speed=0.974x    frame=  662 fps= 24 q=28.0 size=    1024kB time=00:00:26.36 bitrate= 318.2kbits/s speed=0.975x    frame=  674 fps= 24 q=28.0 size=    1024kB time=00:00:26.88 bitrate= 312.1kbits/s speed=0.975x    frame=  687 fps= 24 q=28.0 size=    1024kB time=00:00:27.40 bitrate= 306.2kbits/s speed=0.976x    frame=  701 fps= 25 q=28.0 size=    1024kB time=00:00:27.92 bitrate= 300.5kbits/s speed=0.976x    frame=  714 fps= 25 q=28.0 size=    1024kB time=00:00:28.44 bitrate= 295.0kbits/s speed=0.977x    frame=  726 fps= 24 q=28.0 size=    1024kB time=00:00:28.96 bitrate= 289.7kbits/s speed=0.977x    frame=  739 fps= 25 q=28.0 size=    1024kB time=00:00:29.48 bitrate= 284.6kbits/s speed=0.977x    frame=  752 fps= 25 q=28.0 size=    1280kB time=00:00:30.00 bitrate= 349.5kbits/s speed=0.978x    frame=  766 fps= 25 q=28.0 size=    1280kB time=00:00:30.52 bitrate= 343.6kbits/s speed=0.978x    frame=  779 fps= 25 q=28.0 size=    1280kB time=00:00:31.04 bitrate= 337.8kbits/s speed=0.978x    frame=  792 fps= 25 q=28.0 size=    1280kB time=00:00:31.56 bitrate= 332.3kbits/s speed=0.979x    frame=  804 fps= 25 q=28.0 size=    1280kB time=00:00:32.08 bitrate= 326.9kbits/s speed=0.979x    frame=  818 fps= 25 q=28.0 size=    1280kB time=00:00:32.60 bitrate= 321.7kbits/s speed=0.98x    frame=  831 fps= 25 q=28.0 size=    1280kB time=00:00:33.12 bitrate= 316.6kbits/s speed=0.98x    frame=  843 fps= 25 q=28.0 size=    1280kB time=00:00:33.64 bitrate= 311.7kbits/s speed=0.98x    frame=  856 fps= 25 q=28.0 size=    1280kB time=00:00:34.16 bitrate= 307.0kbits/s speed=0.98x    frame=  869 fps= 25 q=28.0 size=    1280kB time=00:00:34.68 bitrate= 302.4kbits/s speed=0.981x    frame=  882 fps= 25 q=28.0 size=    1280kB time=00:00:35.20 bitrate= 297.9kbits/s speed=0.981x    frame=  895 fps= 25 q=28.0 size=    1280kB time=00:00:35.72 bitrate= 293.6kbits/s speed=0.981x    frame=  909 fps= 25 q=28.0 size=    1280kB time=00:00:36.24 bitrate= 289.4kbits/s speed=0.981x    frame=  921 fps= 25 q=28.0 size=    1280kB time=00:00:36.76 bitrate= 285.3kbits/s speed=0.982x    frame=  934 fps= 25 q=28.0 size=    1280kB time=00:00:37.28 bitrate= 281.3kbits/s speed=0.982x    frame=  948 fps= 25 q=28.0 size=    1280kB time=00:00:37.80 bitrate= 277.4kbits/s speed=0.982x    frame=  960 fps= 25 q=28.0 size=    1280kB time=00:00:38.32 bitrate= 273.6kbits/s speed=0.983x    frame=  974 fps= 25 q=28.0 size=    1280kB time=00:00:38.84 bitrate= 270.0kbits/s speed=0.983x    frame=  986 fps= 25 q=28.0 size=    1280kB time=00:00:39.36 bitrate= 266.4kbits/s speed=0.983x    frame=  999 fps= 25 q=28.0 size=    1536kB time=00:00:39.88 bitrate= 315.5kbits/s speed=0.983x    frame= 1013 fps= 25 q=28.0 size=    1536kB time=00:00:40.40 bitrate= 311.5kbits/s speed=0.983x    frame= 1025 fps= 25 q=28.0 size=    1536kB time=00:00:40.92 bitrate= 307.5kbits/s speed=0.984x    frame= 1039 fps= 25 q=28.0 size=    1536kB time=00:00:41.44 bitrate= 303.7kbits/s speed=0.984x    frame= 1052 fps= 25 q=28.0 size=    1536kB time=00:00:41.96 bitrate= 299.9kbits/s speed=0.984x    frame= 1064 fps= 25 q=28.0 size=    1536kB time=00:00:42.48 bitrate= 296.2kbits/s speed=0.984x    frame= 1077 fps= 25 q=28.0 size=    1536kB time=00:00:43.00 bitrate= 292.6kbits/s speed=0.984x    frame= 1090 fps= 25 q=28.0 size=    1536kB time=00:00:43.52 bitrate= 289.1kbits/s speed=0.985x    frame= 1104 fps= 25 q=28.0 size=    1536kB time=00:00:44.04 bitrate= 285.7kbits/s speed=0.985x    frame= 1116 fps= 25 q=28.0 size=    1536kB time=00:00:44.56 bitrate= 282.4kbits/s speed=0.985x    frame= 1129 fps= 25 q=28.0 size=    1792kB time=00:00:45.08 bitrate= 325.7kbits/s speed=0.985x    frame= 1143 fps= 25 q=28.0 size=    1792kB time=00:00:45.60 bitrate= 321.9kbits/s speed=0.985x    frame= 1155 fps= 25 q=28.0 size=    1792kB time=00:00:46.12 bitrate= 318.3kbits/s speed=0.985x    frame= 1168 fps= 25 q=28.0 size=    1792kB time=00:00:46.64 bitrate= 314.8kbits/s speed=0.986x    frame= 1181 fps= 25 q=28.0 size=    1792kB time=00:00:47.16 bitrate= 311.3kbits/s speed=0.986x    frame= 1194 fps= 25 q=28.0 size=    1792kB time=00:00:47.68 bitrate= 307.9kbits/s speed=0.986x    frame= 1207 fps= 25 q=28.0 size=    1792kB time=00:00:48.20 bitrate= 304.6kbits/s speed=0.986x    frame= 1220 fps= 25 q=28.0 size=    1792kB time=00:00:48.72 bitrate= 301.3kbits/s speed=0.986x    frame= 1234 fps= 25 q=28.0 size=    1792kB time=00:00:49.24 bitrate= 298.1kbits/s speed=0.986x    frame= 1247 fps= 25 q=28.0 size=    1792kB time=00:00:49.76 bitrate= 295.0kbits/s speed=0.987x    frame= 1260 fps= 25 q=28.0 size=    2048kB time=00:00:50.28 bitrate= 333.7kbits/s speed=0.987x    frame= 1273 fps= 25 q=28.0 size=    2048kB time=00:00:50.80 bitrate= 330.3kbits/s speed=0.987x    frame= 1285 fps= 25 q=28.0 size=    2048kB time=00:00:51.32 bitrate= 326.9kbits/s speed=0.987x    frame= 1299 fps= 25 q=28.0 size=    2048kB time=00:00:51.84 bitrate= 323.6kbits/s speed=0.987x    frame= 1311 fps= 25 q=28.0 size=    2048kB time=00:00:52.36 bitrate= 320.4kbits/s speed=0.987x    frame= 1324 fps= 25 q=28.0 size=    2048kB time=00:00:52.88 bitrate= 317.3kbits/s speed=0.987x    frame= 1338 fps= 25 q=28.0 size=    2048kB time=00:00:53.40 bitrate= 314.2kbits/s speed=0.987x    frame= 1351 fps= 25 q=28.0 size=    2048kB time=00:00:53.92 bitrate= 311.2kbits/s speed=0.988x    frame= 1363 fps= 25 q=28.0 size=    2048kB time=00:00:54.44 bitrate= 308.2kbits/s speed=0.988x    frame= 1377 fps= 25 q=28.0 size=    2048kB time=00:00:54.96 bitrate= 305.3kbits/s speed=0.988x    frame= 1389 fps= 25 q=28.0 size=    2048kB time=00:00:55.48 bitrate= 302.4kbits/s speed=0.988x    frame= 1402 fps= 25 q=28.0 size=    2048kB time=00:00:56.00 bitrate= 299.6kbits/s speed=0.988x    frame= 1416 fps= 25 q=28.0 size=    2048kB time=00:00:56.52 bitrate= 296.8kbits/s speed=0.988x    frame= 1429 fps= 25 q=28.0 size=    2048kB time=00:00:57.04 bitrate= 294.1kbits/s speed=0.988x    frame= 1442 fps= 25 q=28.0 size=    2304kB time=00:00:57.56 bitrate= 327.9kbits/s speed=0.988x    frame= 1454 fps= 25 q=28.0 size=    2304kB time=00:00:58.08 bitrate= 325.0kbits/s speed=0.988x    frame= 1467 fps= 25 q=28.0 size=    2304kB time=00:00:58.60 bitrate= 322.1kbits/s speed=0.989x    frame= 1481 fps= 25 q=28.0 size=    2304kB time=00:00:59.12 bitrate= 319.3kbits/s speed=0.989x    frame= 1494 fps= 25 q=28.0 size=    2304kB time=00:00:59.64 bitrate= 316.5kbits/s speed=0.989x    frame= 1506 fps= 25 q=28.0 size=    2560kB time=00:01:00.16 bitrate= 348.6kbits/s speed=0.989x    frame= 1519 fps= 25 q=28.0 size=    2560kB time=00:01:00.68 bitrate= 345.6kbits/s speed=0.989x    frame= 1532 fps= 25 q=28.0 size=    2560kB time=00:01:01.20 bitrate= 342.7kbits/s speed=0.989x    frame= 1546 fps= 25 q=28.0 size=    2560kB time=00:01:01.72 bitrate= 339.8kbits/s speed=0.989x    frame= 1558 fps= 25 q=28.0 size=    2560kB time=00:01:02.24 bitrate= 337.0kbits/s speed=0.989x    frame= 1572 fps= 25 q=28.0 size=    2560kB time=00:01:02.76 bitrate= 334.2kbits/s speed=0.989x    frame= 1584 fps= 25 q=28.0 size=    2560kB time=00:01:03.28 bitrate= 331.4kbits/s speed=0.989x    frame= 1597 fps= 25 q=28.0 size=    2560kB time=00:01:03.80 bitrate= 328.7kbits/s speed=0.989x    frame= 1610 fps= 25 q=28.0 size=    2816kB time=00:01:04.32 bitrate= 358.7kbits/s speed=0.989x    frame= 1624 fps= 25 q=28.0 size=    2816kB time=00:01:04.84 bitrate= 355.8kbits/s speed=0.99x    frame= 1637 fps= 25 q=28.0 size=    2816kB time=00:01:05.36 bitrate= 353.0kbits/s speed=0.99x    frame= 1649 fps= 25 q=28.0 size=    2816kB time=00:01:05.88 bitrate= 350.2kbits/s speed=0.99x    frame= 1663 fps= 25 q=28.0 size=    3072kB time=00:01:06.40 bitrate= 379.0kbits/s speed=0.99x    frame= 1675 fps= 25 q=28.0 size=    3072kB time=00:01:06.92 bitrate= 376.1kbits/s speed=0.99x    frame= 1688 fps= 25 q=28.0 size=    3072kB time=00:01:07.44 bitrate= 373.2kbits/s speed=0.99x    frame= 1701 fps= 25 q=28.0 size=    3072kB time=00:01:07.96 bitrate= 370.3kbits/s speed=0.99x    frame= 1714 fps= 25 q=28.0 size=    3072kB time=00:01:08.48 bitrate= 367.5kbits/s speed=0.99x    frame= 1728 fps= 25 q=28.0 size=    3072kB time=00:01:09.00 bitrate= 364.7kbits/s speed=0.99x    frame= 1740 fps= 25 q=28.0 size=    3328kB time=00:01:09.52 bitrate= 392.2kbits/s speed=0.99x    frame= 1753 fps= 25 q=28.0 size=    3328kB time=00:01:10.04 bitrate= 389.3kbits/s speed=0.99x    frame= 1766 fps= 25 q=28.0 size=    3328kB time=00:01:10.56 bitrate= 386.4kbits/s speed=0.99x    frame= 1779 fps= 25 q=28.0 size=    3328kB time=00:01:11.08 bitrate= 383.6kbits/s speed=0.991x    frame= 1792 fps= 25 q=28.0 size=    3328kB time=00:01:11.60 bitrate= 380.8kbits/s speed=0.991x    frame= 1805 fps= 25 q=28.0 size=    3584kB time=00:01:12.12 bitrate= 407.1kbits/s speed=0.991x    frame= 1818 fps= 25 q=28.0 size=    3584kB time=00:01:12.64 bitrate= 404.2kbits/s speed=0.991x    frame= 1831 fps= 25 q=28.0 size=    3584kB time=00:01:13.16 bitrate= 401.3kbits/s speed=0.991x    frame= 1845 fps= 25 q=28.0 size=    3584kB time=00:01:13.68 bitrate= 398.5kbits/s speed=0.991x    frame= 1858 fps= 25 q=28.0 size=    3584kB time=00:01:14.20 bitrate= 395.7kbits/s speed=0.991x    frame= 1870 fps= 25 q=28.0 size=    3584kB time=00:01:14.72 bitrate= 392.9kbits/s speed=0.991x    frame= 1884 fps= 25 q=28.0 size=    3840kB time=00:01:15.24 bitrate= 418.1kbits/s speed=0.991x    frame= 1897 fps= 25 q=28.0 size=    3840kB time=00:01:15.76 bitrate= 415.2kbits/s speed=0.991x    frame= 1909 fps= 25 q=28.0 size=    3840kB time=00:01:16.28 bitrate= 412.4kbits/s speed=0.991x    frame= 1923 fps= 25 q=28.0 size=    3840kB time=00:01:16.80 bitrate= 409.6kbits/s speed=0.991x    frame= 1935 fps= 25 q=28.0 size=    3840kB time=00:01:17.32 bitrate= 406.9kbits/s speed=0.991x    frame= 1948 fps= 25 q=28.0 size=    4096kB time=00:01:17.84 bitrate= 431.1kbits/s speed=0.991x    frame= 1961 fps= 25 q=28.0 size=    4096kB time=00:01:18.36 bitrate= 428.2kbits/s speed=0.991x    frame= 1975 fps= 25 q=28.0 size=    4096kB time=00:01:18.88 bitrate= 425.4kbits/s speed=0.991x    frame= 1988 fps= 25 q=28.0 size=    4096kB time=00:01:19.40 bitrate= 422.6kbits/s speed=0.992x    frame= 2000 fps= 25 q=28.0 size=    4096kB time=00:01:19.92 bitrate= 419.9kbits/s speed=0.992x    frame= 2014 fps= 25 q=28.0 size=    4352kB time=00:01:20.44 bitrate= 443.2kbits/s speed=0.992x    frame= 2027 fps= 25 q=28.0 size=    4352kB time=00:01:20.96 bitrate= 440.4kbits/s speed=0.992x    frame= 2039 fps= 25 q=28.0 size=    4352kB time=00:01:21.48 bitrate= 437.6kbits/s speed=0.992x    frame= 2052 fps= 25 q=28.0 size=    4352kB time=00:01:22.00 bitrate= 434.8kbits/s speed=0.992x    frame= 2065 fps= 25 q=28.0 size=    4352kB time=00:01:22.52 bitrate= 432.0kbits/s speed=0.992x    frame= 2079 fps= 25 q=28.0 size=    4352kB time=00:01:23.04 bitrate= 429.3kbits/s speed=0.992x    frame= 2092 fps= 25 q=28.0 size=    4608kB time=00:01:23.56 bitrate= 451.8kbits/s speed=0.992x    frame= 2104 fps= 25 q=28.0 size=    4608kB time=00:01:24.08 bitrate= 449.0kbits/s speed=0.992x    frame= 2117 fps= 25 q=28.0 size=    4608kB time=00:01:24.60 bitrate= 446.2kbits/s speed=0.992x    frame= 2131 fps= 25 q=28.0 size=    4608kB time=00:01:25.12 bitrate= 443.5kbits/s speed=0.992x    frame= 2143 fps= 25 q=28.0 size=    4608kB time=00:01:25.64 bitrate= 440.8kbits/s speed=0.992x    frame= 2157 fps= 25 q=28.0 size=    4608kB time=00:01:26.16 bitrate= 438.1kbits/s speed=0.992x    frame= 2169 fps= 25 q=28.0 size=    4608kB time=00:01:26.68 bitrate= 435.5kbits/s speed=0.992x    frame= 2182 fps= 25 q=28.0 size=    4864kB time=00:01:27.20 bitrate= 457.0kbits/s speed=0.992x    frame= 2195 fps= 25 q=28.0 size=    4864kB time=00:01:27.72 bitrate= 454.2kbits/s speed=0.992x    frame= 2209 fps= 25 q=28.0 size=    4864kB time=00:01:28.24 bitrate= 451.6kbits/s speed=0.992x    frame= 2222 fps= 25 q=28.0 size=    4864kB time=00:01:28.76 bitrate= 448.9kbits/s speed=0.992x    frame= 2234 fps= 25 q=28.0 size=    4864kB time=00:01:29.28 bitrate= 446.3kbits/s speed=0.992x    frame= 2247 fps= 25 q=28.0 size=    5120kB time=00:01:29.80 bitrate= 467.1kbits/s speed=0.992x    frame= 2260 fps= 25 q=28.0 size=    5120kB time=00:01:30.32 bitrate= 464.4kbits/s speed=0.992x    frame= 2273 fps= 25 q=28.0 size=    5120kB time=00:01:30.84 bitrate= 461.7kbits/s speed=0.993x    frame= 2287 fps= 25 q=28.0 size=    5376kB time=00:01:31.36 bitrate= 482.1kbits/s speed=0.993x    frame= 2299 fps= 25 q=28.0 size=    5376kB time=00:01:31.88 bitrate= 479.3kbits/s speed=0.993x    frame= 2313 fps= 25 q=28.0 size=    5376kB time=00:01:32.40 bitrate= 476.6kbits/s speed=0.993x    frame= 2326 fps= 25 q=28.0 size=    5376kB time=00:01:32.92 bitrate= 474.0kbits/s speed=0.993x    frame= 2339 fps= 25 q=28.0 size=    5376kB time=00:01:33.44 bitrate= 471.3kbits/s speed=0.993x    frame= 2351 fps= 25 q=28.0 size=    5632kB time=00:01:33.96 bitrate= 491.0kbits/s speed=0.993x    frame= 2365 fps= 25 q=28.0 size=    5632kB time=00:01:34.48 bitrate= 488.3kbits/s speed=0.993x    frame= 2378 fps= 25 q=28.0 size=    5632kB time=00:01:35.00 bitrate= 485.7kbits/s speed=0.993x    frame= 2391 fps= 25 q=28.0 size=    5632kB time=00:01:35.52 bitrate= 483.0kbits/s speed=0.993x    frame= 2404 fps= 25 q=28.0 size=    5632kB time=00:01:36.04 bitrate= 480.4kbits/s speed=0.993x    frame= 2417 fps= 25 q=28.0 size=    5888kB time=00:01:36.56 bitrate= 499.5kbits/s speed=0.993x    frame= 2430 fps= 25 q=28.0 size=    5888kB time=00:01:37.08 bitrate= 496.9kbits/s speed=0.993x    frame= 2443 fps= 25 q=28.0 size=    5888kB time=00:01:37.60 bitrate= 494.2kbits/s speed=0.993x    frame= 2455 fps= 25 q=28.0 size=    5888kB time=00:01:38.12 bitrate= 491.6kbits/s speed=0.993x    frame= 2469 fps= 25 q=28.0 size=    6144kB time=00:01:38.64 bitrate= 510.3kbits/s speed=0.993x    frame= 2482 fps= 25 q=28.0 size=    6144kB time=00:01:39.16 bitrate= 507.6kbits/s speed=0.993x    frame= 2494 fps= 25 q=28.0 size=    6144kB time=00:01:39.68 bitrate= 504.9kbits/s speed=0.993x    frame= 2508 fps= 25 q=28.0 size=    6400kB time=00:01:40.20 bitrate= 523.2kbits/s speed=0.993x    frame= 2521 fps= 25 q=28.0 size=    6400kB time=00:01:40.72 bitrate= 520.5kbits/s speed=0.993x    frame= 2533 fps= 25 q=28.0 size=    6400kB time=00:01:41.24 bitrate= 517.9kbits/s speed=0.993x    frame= 2547 fps= 25 q=28.0 size=    6400kB time=00:01:41.76 bitrate= 515.2kbits/s speed=0.993x    frame= 2559 fps= 25 q=28.0 size=    6400kB time=00:01:42.28 bitrate= 512.6kbits/s speed=0.993x    frame= 2573 fps= 25 q=28.0 size=    6656kB time=00:01:42.80 bitrate= 530.4kbits/s speed=0.993x    frame= 2586 fps= 25 q=28.0 size=    6656kB time=00:01:43.32 bitrate= 527.7kbits/s speed=0.993x    frame= 2598 fps= 25 q=28.0 size=    6656kB time=00:01:43.84 bitrate= 525.1kbits/s speed=0.993x    frame= 2611 fps= 25 q=28.0 size=    6912kB time=00:01:44.36 bitrate= 542.6kbits/s speed=0.994x    frame= 2625 fps= 25 q=28.0 size=    6912kB time=00:01:44.88 bitrate= 539.9kbits/s speed=0.994x    frame= 2638 fps= 25 q=28.0 size=    6912kB time=00:01:45.40 bitrate= 537.2kbits/s speed=0.994x    frame= 2650 fps= 25 q=28.0 size=    6912kB time=00:01:45.92 bitrate= 534.6kbits/s speed=0.994x    frame= 2664 fps= 25 q=28.0 size=    7168kB time=00:01:46.44 bitrate= 551.7kbits/s speed=0.994x    frame= 2677 fps= 25 q=28.0 size=    7168kB time=00:01:46.96 bitrate= 549.0kbits/s speed=0.994x    frame= 2690 fps= 25 q=28.0 size=    7168kB time=00:01:47.48 bitrate= 546.3kbits/s speed=0.994x    frame= 2703 fps= 25 q=28.0 size=    7168kB time=00:01:48.00 bitrate= 543.7kbits/s speed=0.994x    frame= 2715 fps= 25 q=28.0 size=    7168kB time=00:01:48.52 bitrate= 541.1kbits/s speed=0.994x    frame= 2729 fps= 25 q=28.0 size=    7168kB time=00:01:49.04 bitrate= 538.5kbits/s speed=0.994x    frame= 2741 fps= 25 q=28.0 size=    7424kB time=00:01:49.56 bitrate= 555.1kbits/s speed=0.994x    frame= 2755 fps= 25 q=28.0 size=    7424kB time=00:01:50.08 bitrate= 552.5kbits/s speed=0.994x    frame= 2767 fps= 25 q=28.0 size=    7424kB time=00:01:50.60 bitrate= 549.9kbits/s speed=0.994x    frame= 2780 fps= 25 q=28.0 size=    7424kB time=00:01:51.12 bitrate= 547.3kbits/s speed=0.994x    frame= 2793 fps= 25 q=28.0 size=    7680kB time=00:01:51.64 bitrate= 563.6kbits/s speed=0.994x    frame= 2807 fps= 25 q=28.0 size=    7680kB time=00:01:52.16 bitrate= 560.9kbits/s speed=0.994x    frame= 2819 fps= 25 q=28.0 size=    7680kB time=00:01:52.68 bitrate= 558.4kbits/s speed=0.994x    frame= 2833 fps= 25 q=28.0 size=    7680kB time=00:01:53.20 bitrate= 555.8kbits/s speed=0.994x    frame= 2845 fps= 25 q=28.0 size=    7680kB time=00:01:53.72 bitrate= 553.2kbits/s speed=0.994x    frame= 2858 fps= 25 q=28.0 size=    7680kB time=00:01:54.24 bitrate= 550.7kbits/s speed=0.994x    frame= 2872 fps= 25 q=28.0 size=    7680kB time=00:01:54.76 bitrate= 548.2kbits/s speed=0.994x    frame= 2884 fps= 25 q=28.0 size=    7680kB time=00:01:55.28 bitrate= 545.8kbits/s speed=0.994x    frame= 2897 fps= 25 q=28.0 size=    7936kB time=00:01:55.80 bitrate= 561.4kbits/s speed=0.994x    frame= 2911 fps= 25 q=28.0 size=    7936kB time=00:01:56.32 bitrate= 558.9kbits/s speed=0.994x    frame= 2924 fps= 25 q=28.0 size=    7936kB time=00:01:56.84 bitrate= 556.4kbits/s speed=0.994x    frame= 2936 fps= 25 q=28.0 size=    7936kB time=00:01:57.36 bitrate= 554.0kbits/s speed=0.994x    frame= 2949 fps= 25 q=28.0 size=    7936kB time=00:01:57.88 bitrate= 551.5kbits/s speed=0.994x    frame= 2962 fps= 25 q=28.0 size=    7936kB time=00:01:58.40 bitrate= 549.1kbits/s speed=0.994x    frame= 2976 fps= 25 q=28.0 size=    7936kB time=00:01:58.92 bitrate= 546.7kbits/s speed=0.994x    frame= 2989 fps= 25 q=28.0 size=    7936kB time=00:01:59.44 bitrate= 544.3kbits/s speed=0.994x    frame= 3001 fps= 25 q=28.0 size=    7936kB time=00:01:59.96 bitrate= 541.9kbits/s speed=0.994x    frame= 3015 fps= 25 q=28.0 size=    8192kB time=00:02:00.48 bitrate= 557.0kbits/s speed=0.994x    frame= 3028 fps= 25 q=28.0 size=    8192kB time=00:02:01.00 bitrate= 554.6kbits/s speed=0.994x    frame= 3041 fps= 25 q=28.0 size=    8192kB time=00:02:01.52 bitrate= 552.2kbits/s speed=0.994x    frame= 3054 fps= 25 q=28.0 size=    8192kB time=00:02:02.04 bitrate= 549.9kbits/s speed=0.994x    frame= 3066 fps= 25 q=28.0 size=    8192kB time=00:02:02.56 bitrate= 547.6kbits/s speed=0.994x    frame= 3080 fps= 25 q=28.0 size=    8192kB time=00:02:03.08 bitrate= 545.2kbits/s speed=0.995x    frame= 3093 fps= 25 q=28.0 size=    8192kB time=00:02:03.60 bitrate= 543.0kbits/s speed=0.995x    frame= 3106 fps= 25 q=28.0 size=    8192kB time=00:02:04.12 bitrate= 540.7kbits/s speed=0.995x    frame= 3119 fps= 25 q=28.0 size=    8192kB time=00:02:04.64 bitrate= 538.4kbits/s speed=0.995x    frame= 3132 fps= 25 q=28.0 size=    8192kB time=00:02:05.16 bitrate= 536.2kbits/s speed=0.995x    frame= 3145 fps= 25 q=28.0 size=    8192kB time=00:02:05.68 bitrate= 534.0kbits/s speed=0.995x    frame= 3157 fps= 25 q=28.0 size=    8448kB time=00:02:06.20 bitrate= 548.4kbits/s speed=0.995x    frame= 3171 fps= 25 q=28.0 size=    8448kB time=00:02:06.72 bitrate= 546.1kbits/s speed=0.995x    frame= 3184 fps= 25 q=28.0 size=    8448kB time=00:02:07.24 bitrate= 543.9kbits/s speed=0.995x    frame= 3197 fps= 25 q=28.0 size=    8448kB time=00:02:07.76 bitrate= 541.7kbits/s speed=0.995x    frame= 3210 fps= 25 q=28.0 size=    8448kB time=00:02:08.28 bitrate= 539.5kbits/s speed=0.995x    frame= 3223 fps= 25 q=28.0 size=    8448kB time=00:02:08.80 bitrate= 537.3kbits/s speed=0.995x    frame= 3235 fps= 25 q=28.0 size=    8448kB time=00:02:09.32 bitrate= 535.2kbits/s speed=0.995x    frame= 3249 fps= 25 q=25.0 size=    8448kB time=00:02:09.84 bitrate= 533.0kbits/s speed=0.995x    frame= 3262 fps= 25 q=28.0 size=    8448kB time=00:02:10.36 bitrate= 530.9kbits/s speed=0.995x    frame= 3275 fps= 25 q=28.0 size=    8704kB time=00:02:10.88 bitrate= 544.8kbits/s speed=0.995x    frame= 3288 fps= 25 q=28.0 size=    8704kB time=00:02:11.40 bitrate= 542.6kbits/s speed=0.995x    frame= 3301 fps= 25 q=28.0 size=    8960kB time=00:02:11.92 bitrate= 556.4kbits/s speed=0.995x    frame= 3313 fps= 25 q=28.0 size=    8960kB time=00:02:12.44 bitrate= 554.2kbits/s speed=0.995x    frame= 3326 fps= 25 q=28.0 size=    9216kB time=00:02:12.96 bitrate= 567.8kbits/s speed=0.995x    frame= 3340 fps= 25 q=28.0 size=    9216kB time=00:02:13.48 bitrate= 565.6kbits/s speed=0.995x    frame= 3353 fps= 25 q=28.0 size=    9472kB time=00:02:14.00 bitrate= 579.1kbits/s speed=0.995x    frame= 3365 fps= 25 q=28.0 size=    9472kB time=00:02:14.52 bitrate= 576.8kbits/s speed=0.995x    frame= 3378 fps= 25 q=28.0 size=    9472kB time=00:02:15.04 bitrate= 574.6kbits/s speed=0.995x    frame= 3391 fps= 25 q=28.0 size=    9728kB time=00:02:15.56 bitrate= 587.9kbits/s speed=0.995x    frame= 3405 fps= 25 q=28.0 size=    9728kB time=00:02:16.08 bitrate= 585.6kbits/s speed=0.995x    frame= 3417 fps= 25 q=28.0 size=    9728kB time=00:02:16.60 bitrate= 583.4kbits/s speed=0.995x    frame= 3430 fps= 25 q=28.0 size=    9728kB time=00:02:17.12 bitrate= 581.2kbits/s speed=0.995x    frame= 3443 fps= 25 q=28.0 size=    9728kB time=00:02:17.64 bitrate= 579.0kbits/s speed=0.995x    frame= 3456 fps= 25 q=28.0 size=    9728kB time=00:02:18.16 bitrate= 576.8kbits/s speed=0.995x    frame= 3470 fps= 25 q=28.0 size=    9728kB time=00:02:18.68 bitrate= 574.6kbits/s speed=0.995x    frame= 3483 fps= 25 q=28.0 size=    9984kB time=00:02:19.20 bitrate= 587.6kbits/s speed=0.995x    frame= 3496 fps= 25 q=28.0 size=    9984kB time=00:02:19.72 bitrate= 585.4kbits/s speed=0.995x    frame= 3508 fps= 25 q=28.0 size=    9984kB time=00:02:20.24 bitrate= 583.2kbits/s speed=0.995x    frame= 3522 fps= 25 q=28.0 size=    9984kB time=00:02:20.76 bitrate= 581.1kbits/s speed=0.995x    frame= 3535 fps= 25 q=28.0 size=    9984kB time=00:02:21.28 bitrate= 578.9kbits/s speed=0.995x    frame= 3548 fps= 25 q=28.0 size=    9984kB time=00:02:21.80 bitrate= 576.8kbits/s speed=0.995x    frame= 3560 fps= 25 q=28.0 size=    9984kB time=00:02:22.32 bitrate= 574.7kbits/s speed=0.995x    frame= 3573 fps= 25 q=28.0 size=    9984kB time=00:02:22.84 bitrate= 572.6kbits/s speed=0.995x    frame= 3587 fps= 25 q=28.0 size=    9984kB time=00:02:23.36 bitrate= 570.5kbits/s speed=0.995x    frame= 3600 fps= 25 q=28.0 size=    9984kB time=00:02:23.88 bitrate= 568.5kbits/s speed=0.995x    frame= 3613 fps= 25 q=28.0 size=    9984kB time=00:02:24.40 bitrate= 566.4kbits/s speed=0.995x    frame= 3626 fps= 25 q=28.0 size=   10240kB time=00:02:24.92 bitrate= 578.8kbits/s speed=0.995x    frame= 3639 fps= 25 q=28.0 size=   10240kB time=00:02:25.44 bitrate= 576.8kbits/s speed=0.995x    frame= 3652 fps= 25 q=28.0 size=   10240kB time=00:02:25.96 bitrate= 574.7kbits/s speed=0.995x    frame= 3665 fps= 25 q=28.0 size=   10240kB time=00:02:26.48 bitrate= 572.7kbits/s speed=0.995x    frame= 3678 fps= 25 q=28.0 size=   10240kB time=00:02:27.00 bitrate= 570.7kbits/s speed=0.995x    frame= 3691 fps= 25 q=28.0 size=   10240kB time=00:02:27.52 bitrate= 568.6kbits/s speed=0.995x    frame= 3703 fps= 25 q=28.0 size=   10240kB time=00:02:28.04 bitrate= 566.6kbits/s speed=0.995x    frame= 3717 fps= 25 q=28.0 size=   10240kB time=00:02:28.56 bitrate= 564.7kbits/s speed=0.995x    frame= 3730 fps= 25 q=28.0 size=   10240kB time=00:02:29.08 bitrate= 562.7kbits/s speed=0.995x    frame= 3742 fps= 25 q=28.0 size=   10240kB time=00:02:29.60 bitrate= 560.7kbits/s speed=0.995x    frame= 3756 fps= 25 q=28.0 size=   10240kB time=00:02:30.12 bitrate= 558.8kbits/s speed=0.995x    [mp4 @ 0x56255c484200] Starting second pass: moving the moov atom to the beginning of the file
[out#0/mp4 @ 0x56255c483580] video:10428kB audio:0kB subtitle:0kB other streams:0kB global headers:0kB muxing overhead: 0.422861%
frame= 3775 fps= 25 q=-1.0 Lsize=   10472kB time=00:02:30.88 bitrate= 568.6kbits/s speed=0.999x    
[libx264 @ 0x56255c484d40] frame I:16    Avg QP:15.38  size:128731
[libx264 @ 0x56255c484d40] frame P:1055  Avg QP:24.44  size:  6396
[libx264 @ 0x56255c484d40] frame B:2704  Avg QP:27.23  size:   692
[libx264 @ 0x56255c484d40] consecutive B-frames:  1.7%  4.9% 10.3% 83.1%
[libx264 @ 0x56255c484d40] mb I  I16..4: 56.7%  4.3% 39.0%
[libx264 @ 0x56255c484d40] mb P  I16..4:  1.2%  0.5%  0.6%  P16..4:  5.4%  2.4%  1.7%  0.0%  0.0%    skip:88.2%
[libx264 @ 0x56255c484d40] mb B  I16..4:  0.2%  0.0%  0.0%  B16..8:  1.8%  0.7%  0.1%  direct: 0.5%  skip:96.7%  L0:37.5% L1:43.9% BI:18.7%
[libx264 @ 0x56255c484d40] 8x8 transform intra:12.8% inter:21.4%
[libx264 @ 0x56255c484d40] coded y,uvDC,uvAC intra: 37.7% 35.6% 19.8% inter: 1.6% 0.8% 0.1%
[libx264 @ 0x56255c484d40] i16 v,h,dc,p: 45% 50%  4%  2%
[libx264 @ 0x56255c484d40] i8 v,h,dc,ddl,ddr,vr,hd,vl,hu: 26% 32% 21%  4%  3%  3%  3%  3%  5%
[libx264 @ 0x56255c484d40] i4 v,h,dc,ddl,ddr,vr,hd,vl,hu: 24% 29% 14%  5%  5%  5%  6%  5%  7%
[libx264 @ 0x56255c484d40] i8c dc,h,v,p: 50% 29% 18%  4%
[libx264 @ 0x56255c484d40] Weighted P-Frames: Y:0.0% UV:0.0%
[libx264 @ 0x56255c484d40] kb/s:565.71
